# xmcd
#
# Track frame offsets:
#        150
#        16790
#        33672
#        47367
#        62840
#        79682
#        100200
#        114355
#        130605
#        157000
#        171990
#
# Disc length: 2548 seconds
#
# Revision: 0
# Processed by: cddbd v1.5.1PL2 Copyright (c) Steve Scherf et al.
# Submitted via: ExactAudioCopy v0.95a5
#
DISCID=8209f20b
DTITLE=Various Artist - Tribute To Marvin Gaye
DYEAR=1990
DGENRE=R&B
TTITLE0=Frankie Gaye - What's Going On
TTITLE1=Gino Prks and Frances Nero - Your Precious Love
TTITLE2=Kim Weston - Dancing In The Street
TTITLE3=Liz Lands - How Sweet It Is
TTITLE4=Frankie Gaye - I Heard It Through The Grapevine
TTITLE5=Ronnie McNeir - Let's Get It On
TTITLE6=Martha Reeves and G.C. Cameron - You're All I Need To Get By
TTITLE7=Frankie Gaye and Mary Wells - Once Upon A Time
TTITLE8=Lynda Laurence /If This World Were Mine
TTITLE9=Frankie Gaye and Kim Weston - It Takes Two
TTITLE10=Frankie Gaye - My Brother
EXTD=
EXTT0=
EXTT1=
EXTT2=
EXTT3=
EXTT4=
EXTT5=
EXTT6=
EXTT7=
EXTT8=
EXTT9=
EXTT10=
PLAYORDER=
